Coordinates
version=1
nRows=14
nColumns=46
inDegrees=yes

Units are S.I. units (second, meters, Newtons, ...)
Angles are in degrees.

endheader
time	pelvis_tilt	pelvis_list	pelvis_rotation	pelvis_tx	pelvis_ty	pelvis_tz	bb_angle	bb_tx	bb_ty	bb_tz	hip_flexion_r	hip_adduction_r	hip_rotation_r	knee_angle_r	knee_angle_r_beta	ankle_angle_r	subtalar_angle_r	mtp_angle_r	crank_angle_r	hip_flexion_l	hip_adduction_l	hip_rotation_l	knee_angle_l	knee_angle_l_beta	ankle_angle_l	subtalar_angle_l	mtp_angle_l	crank_angle_l	lumbar_extension	lumbar_bending	lumbar_rotation	arm_flex_r	arm_add_r	arm_rot_r	elbow_flex_r	pro_sup_r	wrist_flex_r	wrist_dev_r	arm_flex_l	arm_add_l	arm_rot_l	elbow_flex_l	pro_sup_l	wrist_flex_l	wrist_dev_l
      2.50500000	    -27.63327186	     -5.47772728	     -9.05304500	      0.38781477	      1.15913249	     -0.21251222	      0.00000000	      0.50000000	      0.00000000	      0.25000000	     63.73851104	      6.46624705	     -0.35518340	     66.06660168	      1.15307972	     21.92179678	     -7.81918553	      0.00000000	      0.00000000	     45.72647185	    -11.81187835	      6.09660649	     63.99020055	      1.11683969	    -21.98704980	    -10.79678744	      0.00000000	      0.00000000	    -58.86366494	      4.68171612	      9.58920727	     62.05676045	    -31.36055234	     42.99017654	     92.27837492	     60.60342927	      0.00000000	      0.00000000	     40.11613165	    -19.84692893	      6.81342136	     89.32578592	     53.96578155	      0.00000000	      0.00000000
      2.51000000	    -27.15263864	     -4.83596467	     -8.89089952	      0.38869265	      1.15688359	     -0.21254350	      0.00000000	      0.50000000	      0.00000000	      0.25000000	     62.74977517	      5.91162319	      0.13481744	     64.83686781	      1.13161682	     21.08220169	     -7.51809341	      0.00000000	      0.00000000	     46.23670483	    -11.12181268	      5.96079374	     66.42529039	      1.15934002	    -21.35607961	    -10.82454636	      0.00000000	      0.00000000	    -58.91575793	      4.33406750	      9.04302714	     61.68667282	    -31.44907603	     43.01888332	     92.34195580	     60.61425553	      0.00000000	      0.00000000	     40.05858617	    -19.60250933	      6.97992962	     89.25187398	     53.97359678	      0.00000000	      0.00000000
      2.51500000	    -26.86111709	     -4.28403511	     -8.66018952	      0.38948393	      1.15399822	     -0.21238565	      0.00000000	      0.50000000	      0.00000000	      0.25000000	     61.94390693	      5.40492300	      0.56420761	     63.68034211	      1.11143164	     20.25114032	     -7.43883597	      0.00000000	      0.00000000	     47.05394141	    -10.59266013	      5.93152776	     68.98978689	      1.20409893	    -19.98682796	     -9.65152852	      0.00000000	      0.00000000	    -58.69660718	      4.04278739	      8.84361109	     60.55171838	    -31.77559945	     42.22463521	     92.96161070	     60.58562349	      0.00000000	      0.00000000	     39.96297664	    -19.05816161	      6.82378795	     88.92564407	     53.91244563	      0.00000000	      0.00000000
      2.52000000	    -26.34666076	     -3.69024642	     -8.39400368	      0.39033262	      1.15160863	     -0.21241234	      0.00000000	      0.50000000	      0.00000000	      0.25000000	     60.84943884	      4.86531178	      1.13748852	     62.46557633	      1.09022998	     19.48231053	     -7.18809973	      0.00000000	      0.00000000	     47.60185378	     -9.96375113	      5.77297716	     71.35954975	      1.24545910	    -19.67798840	     -9.69048428	      0.00000000	      0.00000000	    -58.72572271	      3.71945645	      8.26536830	     60.11944934	    -31.88445847	     42.15473430	     93.02188388	     60.58692992	      0.00000000	      0.00000000	     39.89831120	    -18.79127903	      6.96342872	     88.82913093	     53.91465888	      0.00000000	      0.00000000
      2.52500000	    -26.23169161	     -3.52332152	     -8.16618309	      0.39074009	      1.14809570	     -0.21160278	      0.00000000	      0.50000000	      0.00000000	      0.25000000	     60.13270033	      4.78858436	      1.38865174	     61.23955802	      1.06883192	     18.29930978	     -7.79334873	      0.00000000	      0.00000000	     48.96955737	    -10.13452230	      5.89734582	     74.27514147	      1.29634577	    -18.18621843	     -7.53609329	      0.00000000	      0.00000000	    -58.31310325	      3.56373666	      8.55217698	     58.04968670	    -32.02292511	     40.17643066	     93.85004833	     60.42879421	      0.00000000	      0.00000000	     40.34481471	    -17.94463200	      7.98433902	     88.21749973	     53.92702834	      0.00000000	      0.00000000
      2.53000000	    -25.62437672	     -2.61199861	     -7.75055989	      0.39180657	      1.14575323	     -0.21189094	      0.00000000	      0.50000000	      0.00000000	      0.25000000	     58.97384526	      3.86939886	      2.06220626	     60.15802431	      1.04995560	     17.56342159	     -7.73003794	      0.00000000	      0.00000000	     49.20058808	     -8.98386910	      5.54561027	     76.32445667	      1.33211307	    -17.57736387	     -8.20474078	      0.00000000	      0.00000000	    -58.36496588	      2.97121169	      8.47376108	     55.57350672	    -32.63821668	     37.62485976	     95.34305671	     60.25341241	      0.00000000	      0.00000000	     41.32844409	    -16.84478881	      9.31169572	     86.91340249	     53.86264729	      0.00000000	      0.00000000
      2.53500000	    -25.15143908	     -1.98938382	     -7.32912080	      0.39264413	      1.14306639	     -0.21192391	      0.00000000	      0.50000000	      0.00000000	      0.25000000	     57.87134054	      3.20111774	      2.55504981	     59.01531592	      1.03001157	     16.73598948	     -7.83621520	      0.00000000	      0.00000000	     49.87042500	     -8.30910094	      5.37565111	     78.67773479	      1.37318552	    -16.87395398	     -8.00666606	      0.00000000	      0.00000000	    -58.31021668	      2.73697057	      7.73942285	     55.06832737	    -32.69742248	     37.68520596	     95.39980773	     60.26847898	      0.00000000	      0.00000000	     41.26306199	    -16.72320359	      9.48390866	     86.77062056	     53.86121450	      0.00000000	      0.00000000
      2.54000000	    -24.67107749	     -1.39628066	     -6.91746075	      0.39342662	      1.14031929	     -0.21175309	      0.00000000	      0.50000000	      0.00000000	      0.25000000	     56.71900746	      2.61363434	      3.12738513	     57.90360201	      1.01060850	     16.01305270	     -7.79845471	      0.00000000	      0.00000000	     50.57412674	     -7.71964080	      5.17793032	     81.00786239	      1.41385392	    -16.53596442	     -7.86735888	      0.00000000	      0.00000000	    -58.25296017	      2.46368844	      6.98687233	     54.66286719	    -32.73085531	     37.69051773	     95.40231080	     60.27193935	      0.00000000	      0.00000000	     41.13829103	    -16.60008822	      9.63381946	     86.66723715	     53.86376906	      0.00000000	      0.00000000
      2.54500000	    -24.28738693	     -0.76045165	     -6.32364614	      0.39425728	      1.13754502	     -0.21180647	      0.00000000	      0.50000000	      0.00000000	      0.25000000	     55.63124381	      1.82108239	      3.50286715	     56.76174951	      0.99067942	     15.02964210	     -8.59100790	      0.00000000	      0.00000000	     51.40962790	     -7.00801937	      5.12637892	     83.33308182	      1.45443665	    -15.24540305	     -6.88687015	      0.00000000	      0.00000000	    -58.05453508	      2.31139144	      6.03971618	     53.71291336	    -32.36591678	     37.43200778	     95.33541672	     60.22742477	      0.00000000	      0.00000000	     40.96059716	    -16.66597753	      9.73683368	     86.48800531	     53.85146078	      0.00000000	      0.00000000
      2.55000000	    -23.89740694	     -0.21992847	     -5.85707936	      0.39491283	      1.13473769	     -0.21160186	      0.00000000	      0.50000000	      0.00000000	      0.25000000	     54.46932354	      1.26838350	      4.07808005	     55.61536824	      0.97067129	     14.30893681	     -8.54656655	      0.00000000	      0.00000000	     52.21419876	     -6.38750375	      5.01180264	     85.53957317	      1.49294719	    -14.88536190	     -6.83759971	      0.00000000	      0.00000000	    -57.88964222	      2.06334231	      5.27381446	     53.23621134	    -32.31279991	     37.35340945	     95.25342660	     60.20747329	      0.00000000	      0.00000000	     40.83576956	    -16.63621327	      9.86618395	     86.43044254	     53.85908636	      0.00000000	      0.00000000
      2.55500000	    -23.64375019	      0.34430328	     -5.04035257	      0.39556380	      1.13181984	     -0.21180923	      0.00000000	      0.50000000	      0.00000000	      0.25000000	     53.44454169	      0.39104914	      4.28209248	     54.49240755	      0.95107193	     13.18294775	     -9.56216353	      0.00000000	      0.00000000	     53.20250624	     -5.44482576	      5.26452867	     87.72140481	      1.53102734	    -13.85253210	     -5.97687274	      0.00000000	      0.00000000	    -57.47881747	      2.11339350	      4.07849747	     52.04534446	    -31.34496902	     36.62610367	     94.87087677	     60.04828575	      0.00000000	      0.00000000	     40.49526303	    -17.24345200	     10.09033933	     86.35218909	     53.87917628	      0.00000000	      0.00000000
      2.56000000	    -23.42322770	      0.89283444	     -4.40603270	      0.39616725	      1.12902570	     -0.21165773	      0.00000000	      0.50000000	      0.00000000	      0.25000000	     52.36194571	     -0.29797520	      4.71059086	     53.27810948	      0.92987843	     12.37146946	    -10.02215337	      0.00000000	      0.00000000	     54.23961808	     -4.81082416	      5.22162356	     89.83437255	      1.56790558	    -13.13875644	     -5.39818314	      0.00000000	      0.00000000	    -57.07316945	      1.95653944	      2.93717745	     51.09760559	    -30.19703877	     35.78717100	     94.21901530	     59.82348014	      0.00000000	      0.00000000	     40.15481208	    -18.00821201	     10.41655416	     86.51792076	     53.94863478	      0.00000000	      0.00000000
      2.56500000	    -23.18603007	      1.42128688	     -3.77763427	      0.39673994	      1.12627306	     -0.21147662	      0.00000000	      0.50000000	      0.00000000	      0.25000000	     51.23566765	     -0.97590472	      5.11256453	     52.11424793	      0.90956521	     11.69322430	    -10.36398484	      0.00000000	      0.00000000	     55.30774803	     -4.28541845	      5.16583287	     91.96119051	      1.60502556	    -12.44113097	     -4.66665112	      0.00000000	      0.00000000	    -56.66763055	      1.78400590	      1.70714552	     50.36976638	    -29.13070634	     35.38191200	     93.33839967	     59.60894889	      0.00000000	      0.00000000	     39.72410197	    -18.89122494	     10.83790345	     86.80191010	     54.04339160	      0.00000000	      0.00000000
      2.57000000	    -22.92701129	      2.05516497	     -3.13260956	      0.39715510	      1.12371545	     -0.21163529	      0.00000000	      0.50000000	      0.00000000	      0.25000000	     50.03900307	     -1.77337871	      5.59920755	     50.86807376	      0.88781537	     11.15072783	    -10.45540554	      0.00000000	      0.00000000	     56.27992479	     -3.51538737	      4.96854621	     93.91285093	      1.63908846	    -11.89995357	     -4.76175179	      0.00000000	      0.00000000	    -56.34736070	      1.52176112	      0.77034262	     49.88987806	    -29.21985956	     35.43981498	     93.18677576	     59.59763499	      0.00000000	      0.00000000	     39.66829965	    -18.99631730	     10.92504040	     86.71507419	     54.03967074	      0.00000000	      0.00000000
